<svg xmlns="http://www.w3.org/2000/svg" viewBox="-16 -16 1132 472" width="1132" height="472" role="img" aria-label="On the ZedBoard, an MMCM turns the board's 100 MHz clock into 150 MHz. A push-button starts a ten-state FSM that reads data blocks from a block RAM through an address counter, presents them to the ASCON core, then waits for the tag. Two multiplexers driven by the switches choose which byte of the ciphertext or the tag is shown on the eight LEDs.">
<title>ASCON on ZedBoard — the integration layer</title>
<style>
svg{--bg:#FFFFFF;--surface:#FFFFFF;--ink:#131A1F;--muted:#59686F;--line:#C3CDD2;--cpu:#2F6382;--gpu:#A85C1B;--cpuSoft:#E1ECF3;--gpuSoft:#F7E9DB;font-family:system-ui,-apple-system,"Segoe UI",Roboto,Helvetica,Arial,sans-serif}
@media (prefers-color-scheme:dark){svg{--bg:#0F1418;--surface:#171E23;--ink:#E5EBEE;--muted:#93A3AC;--line:#2C3841;--cpu:#79B4D8;--gpu:#E19A57;--cpuSoft:#16242E;--gpuSoft:#2A1F14}}
.bg{fill:var(--bg)}
.t-name{font-family:ui-monospace,"SF Mono",Menlo,Consolas,"Liberation Mono",monospace;font-size:12.5px;font-weight:500;fill:var(--ink)}
.t-sub{font-size:10.5px;fill:var(--muted)}
.t-lane{font-family:ui-monospace,"SF Mono",Menlo,Consolas,"Liberation Mono",monospace;font-size:11px;font-weight:600;letter-spacing:.1em}
.t-edge{font-family:ui-monospace,"SF Mono",Menlo,Consolas,"Liberation Mono",monospace;font-size:10.5px;fill:var(--muted)}
.t-small{font-size:10px;fill:var(--muted)}
.box-cpu{fill:var(--surface);stroke:var(--cpu);stroke-width:1.4}
.box-gpu{fill:var(--surface);stroke:var(--gpu);stroke-width:1.6}
.box-n{fill:var(--surface);stroke:var(--line);stroke-width:1.3}
.lane-cpu{fill:var(--cpuSoft);stroke:var(--cpu);stroke-width:1}
.ln{stroke:var(--ink);stroke-width:1.4;fill:none}
.ln-cpu{stroke:var(--cpu);stroke-width:1.4;fill:none;stroke-dasharray:4 3}
.a-ink{fill:var(--ink)}.a-cpu{fill:var(--cpu)}
</style>
<defs>
<marker id="a" markerWidth="9" markerHeight="9" refX="8" refY="4.5" orient="auto"><polygon class="a-ink" points="0,0.6 8.4,4.5 0,8.4"/></marker>
<marker id="c" markerWidth="9" markerHeight="9" refX="8" refY="4.5" orient="auto"><polygon class="a-cpu" points="0,0.6 8.4,4.5 0,8.4"/></marker>
</defs>
<rect class="bg" x="-16" y="-16" width="1132" height="472"/>

<text class="t-lane" x="40" y="26" fill="var(--muted)">ZEDBOARD — ZYNQ-7020 (xc7z020)</text>

<rect class="lane-cpu" x="20" y="44" width="240" height="196" rx="6"/>
<text class="t-lane" x="38" y="68" fill="var(--cpu)">BOARD INPUTS</text>

<rect class="box-cpu" x="38" y="84" width="204" height="44" rx="3"/>
<text class="t-name" x="140" y="104" text-anchor="middle">100 MHz clock</text>
<text class="t-sub" x="140" y="119" text-anchor="middle">on-board oscillator</text>

<rect class="box-cpu" x="38" y="138" width="204" height="40" rx="3"/>
<text class="t-name" x="140" y="163" text-anchor="middle">start button · reset</text>

<rect class="box-cpu" x="38" y="188" width="204" height="40" rx="3"/>
<text class="t-name" x="140" y="206" text-anchor="middle">5 switches</text>
<text class="t-sub" x="140" y="221" text-anchor="middle">sel_val · sel_bits</text>

<rect class="box-n" x="288" y="84" width="150" height="44" rx="3"/>
<text class="t-name" x="363" y="104" text-anchor="middle">MMCM</text>
<text class="t-sub" x="363" y="119" text-anchor="middle">100 → 150 MHz</text>
<line class="ln" x1="242" y1="106" x2="284" y2="106" marker-end="url(#a)"/>

<rect class="box-n" x="288" y="148" width="150" height="80" rx="3"/>
<text class="t-name" x="363" y="172" text-anchor="middle">driver FSM</text>
<text class="t-sub" x="363" y="190" text-anchor="middle">10 states</text>
<text class="t-sub" x="363" y="206" text-anchor="middle">read, present,</text>
<text class="t-sub" x="363" y="221" text-anchor="middle">wait, increment</text>
<line class="ln" x1="242" y1="158" x2="284" y2="170" marker-end="url(#a)"/>

<rect class="box-n" x="478" y="74" width="160" height="56" rx="3"/>
<text class="t-name" x="558" y="96" text-anchor="middle">block RAM</text>
<text class="t-sub" x="558" y="112" text-anchor="middle">64-bit blocks</text>
<text class="t-sub" x="558" y="124" text-anchor="middle">associated data + plaintext</text>

<rect class="box-n" x="478" y="148" width="160" height="44" rx="3"/>
<text class="t-name" x="558" y="168" text-anchor="middle">counter</text>
<text class="t-sub" x="558" y="183" text-anchor="middle">read address</text>

<line class="ln" x1="438" y1="186" x2="474" y2="170" marker-end="url(#a)"/>
<line class="ln" x1="558" y1="144" x2="558" y2="134" marker-end="url(#a)"/>

<rect class="box-gpu" x="688" y="74" width="200" height="154" rx="4"/>
<text class="t-lane" x="708" y="100" fill="var(--gpu)">ASCON CORE</text>
<text class="t-sub" x="708" y="124">SystemVerilog RTL</text>
<text class="t-sub" x="708" y="142">26-state Moore FSM</text>
<text class="t-sub" x="708" y="160">320-bit permutation</text>
<text class="t-sub" x="708" y="178">1 round per cycle</text>
<text class="t-sub" x="708" y="202">outputs: ciphertext 64 b</text>
<text class="t-sub" x="708" y="218">tag 128 b</text>

<line class="ln" x1="638" y1="102" x2="684" y2="112" marker-end="url(#a)"/>
<text class="t-edge" x="662" y="96" text-anchor="middle">data</text>
<line class="ln" x1="438" y1="160" x2="458" y2="160"/>
<path class="ln" d="M 458 160 L 458 252 L 788 252 L 788 232" marker-end="url(#a)"/>
<text class="t-edge" x="620" y="268" text-anchor="middle">init · associate_data · finalisation · data_valid</text>

<path class="ln-cpu" d="M 888 196 L 928 196 L 928 290 L 363 290 L 363 232" marker-end="url(#c)"/>
<text class="t-edge" x="650" y="306" text-anchor="middle" fill="var(--cpu)">end_initialisation · end_associate · cipher_valid · end_tag — the FSM waits on these acknowledgements</text>

<rect class="box-n" x="688" y="344" width="200" height="60" rx="3"/>
<text class="t-name" x="788" y="366" text-anchor="middle">two multiplexers</text>
<text class="t-sub" x="788" y="382" text-anchor="middle">ciphertext or tag,</text>
<text class="t-sub" x="788" y="396" text-anchor="middle">then 1 byte out of 16</text>
<line class="ln" x1="788" y1="232" x2="788" y2="340" marker-end="url(#a)"/>

<rect class="box-cpu" x="938" y="344" width="118" height="60" rx="3"/>
<text class="t-name" x="997" y="368" text-anchor="middle">8 LEDs</text>
<text class="t-sub" x="997" y="384" text-anchor="middle">one byte displayed</text>
<line class="ln" x1="888" y1="374" x2="934" y2="374" marker-end="url(#a)"/>

<path class="ln" d="M 140 228 L 140 374 L 684 374" marker-end="url(#a)"/>
<text class="t-edge" x="340" y="366">the switches pick which byte to read</text>

<text class="t-small" x="40" y="440">Implementation result: 857 LUTs (1.6 %), 573 flip-flops, 1 block RAM, timing met at 150 MHz with 0.182 ns of slack.</text>
</svg>
